<svg enable-background="new 0 0 24 24" height="512" viewBox="0 0 24 24" width="512" xmlns="http://www.w3.org/2000/svg"><path d="m19 5c0-.552-.448-1-1-1s-1 .448-1 1v4h-6.5v-3c0-.552-.448-1-1-1s-1 .448-1 1v3h-6.5v-4.25c0-.552-.448-1-1-1s-1 .448-1 1v13.75c0 1.378 1.122 2.5 2.5 2.5h13.5c1.654 0 3-1.346 3-3zm-2 6v3h-6.5v-3zm-8.5 0v3h-6.5v-3zm-6.5 7.5v-2.5h6.5v3h-6c-.276 0-.5-.224-.5-.5zm14 .5h-5.5v-3h6.5v2c0 .551-.449 1-1 1z" fill="#cfd8dc"/><path d="m16.75 0h-14.5c-1.243 0-2.25 1.007-2.25 2.25v3.75h19v-3.75c0-1.243-1.007-2.25-2.25-2.25z" fill="#2196f3"/><path d="m2.5 19c-.276 0-.5-.224-.5-.5v-2.5h6.5v3zm-.5-5v-3h6.5v3zm-2-9.25v13.75c0 1.378 1.122 2.5 2.5 2.5h7.035v-15h-1.035v3h-6.5v-3h-2z" fill="#b0bec5"/><path d="m9.535 0h-7.285c-1.243 0-2.25 1.007-2.25 2.25v2.5 1.25h2 6.5 1.035z" fill="#1e88e5"/><path d="m19.025 21.031-2.54 2.53c-.29.29-.68.44-1.06.44-.39 0-.77-.15-1.06-.44l-3.54-3.53c-.28-.29-.44-.67-.44-1.07s.16-.77.44-1.06l2.54-2.53z" fill="#90caf9"/><path d="m23.554 16.491-4.53 4.54-5.66-5.66 4.53-4.54c.57-.56 1.56-.56 2.13 0l3.53 3.54c.591.58.59 1.53 0 2.12z" fill="#2196f3"/><path d="m16.192 18.199-2.827-2.827-2.54 2.53c-.28.29-.44.66-.44 1.06s.16.78.44 1.07l1.77 1.765z" fill="#7db0d9"/><path d="m20.024 10.831c-.57-.56-1.56-.56-2.13 0l-4.53 4.54 2.827 2.827 5.597-5.597z" fill="#1e88e5"/></svg>